<?xml version="1.0" encoding="utf-8"?>
<!-- Generator: Adobe Illustrator 23.0.1, SVG Export Plug-In . SVG Version: 6.00 Build 0)  -->
<svg version="1.1" id="Слой_1" xmlns="http://www.w3.org/2000/svg" xmlns:xlink="http://www.w3.org/1999/xlink" x="0px" y="0px"
	 viewBox="0 0 21.0048828 25.2312908" enable-background="new 0 0 21.0048828 25.2312908" xml:space="preserve">
<g>
	<polygon fill="#1D1D1D" points="8.1103516,3.8583984 12.8916016,4.8154297 12.8916016,5.4365234 13.4707031,5.4365234 
		13.4707031,4.3388672 7.53125,3.1523438 7.53125,5.4365234 8.1103516,5.4365234 	"/>
	<path fill="#1D1D1D" d="M17.1731548,25.2246094h3.831728L20.9121094,24.46875l-1.5761719-11.5634766l-5.8652344-1.0664063
		V9.9980469L13.5244141,9.9375c0.6171875-0.6933594,0.9677734-1.5507813,1.0136719-2.4785156l0.0039063-0.0820313
		l1.0722656-1.0712891V2.4335938C15.6142578,1.0917969,14.5224609,0,13.1806641,0h-5.359375
		C6.4794922,0,5.3876953,1.0917969,5.3876953,2.4335938v3.8720703l1.0800781,1.0771484l0.0068359,0.078125
		c0.0751953,0.9023438,0.4228516,1.7392578,1.0058594,2.421875L7.53125,9.9423828v1.8964844l-5.8652344,1.0664063L0,25.2246094
		h3.7773216v-0.5703125H0.6582031l0.1152344-0.8466797v0.0009766l0.0478516-0.4160156l1.3632813-9.9921875l1.0625-0.1933594
		L3.25,13.2148438l2.6728516-0.4941406l2.4677734,2.9628906l-0.1630859,0.1357422h1.0385132l1.2349243-1.6474609
		l1.2349243,1.6474609h1.0233154l0.0062256-0.0074463l-0.1541138-0.1282959l2.4677734-2.9628906l3.7382813,0.6796875
		l0.0214844,0.1533203l1.3955078,10.2373047l-0.0039063-0.0019531l0.1171875,0.8652344h-3.159853L17.1731548,25.2246094z
		 M7.0410156,7.2460938L7.0371094,7.1318359L5.9667969,6.0644531V2.4335938c0-1.0224609,0.8320313-1.8544922,1.8544922-1.8544922
		h5.359375c1.0224609,0,1.8544922,0.8320313,1.8544922,1.8544922v3.6308594l-1.0722656,1.0722656v0.1201172
		c0,0.9453125-0.3730469,1.828125-1.0507813,2.484375c-0.6523438,0.6328125-1.5048828,0.9775391-2.4111328,0.9775391
		c-0.0361328,0-0.0712891,0-0.1064453-0.0009766C8.5888672,10.6630859,7.1162109,9.1386719,7.0410156,7.2460938z
		 M8.8808594,15.3652344L6.578125,12.6025391l1.1875-0.2177734l2.3105469,1.3876953L8.8808594,15.3652344z M8.1103516,11.9160156
		v-1.4111328l0.3251953,0.2021484c0.5878906,0.3652344,1.2597656,0.5693359,1.9414063,0.5898438l0.1259766,0.0019531
		c0.7304688,0,1.4453125-0.1962891,2.0664063-0.5683594l0.3222656-0.1923828v1.3779297l-2.390625,1.4345703L8.1103516,11.9160156z
		 M12.1210938,15.3652344l-1.1953125-1.5927734l2.3105469-1.3876953l1.1875,0.2177734L12.1210938,15.3652344z"/>
	<path fill="#262727" d="M9.2660522,15.8193359"/>
	<path fill="#262727" d="M11.7359009,15.8193359"/>
	<path fill="#262727" d="M8.2275391,15.8193359"/>
	<path fill="#262727" d="M12.7744141,15.8193359"/>
</g>
<rect x="4.0578513" y="16.1321697" fill="none" stroke="#009E82" stroke-width="0.7086614" stroke-miterlimit="10" width="12.8891802" height="8.744792"/>
<line fill="none" stroke="#009E82" stroke-width="0.7086614" stroke-miterlimit="10" x1="8.4243164" y1="20.5045643" x2="12.5805664" y2="20.5045643"/>
</svg>
