<?xml version="1.0" encoding="utf-8"?>
<!-- Generator: Adobe Illustrator 23.0.1, SVG Export Plug-In . SVG Version: 6.00 Build 0)  -->
<svg version="1.1" id="Слой_1" xmlns="http://www.w3.org/2000/svg" xmlns:xlink="http://www.w3.org/1999/xlink" x="0px" y="0px"
	 viewBox="0 0 69.68396 52.3938599" enable-background="new 0 0 69.68396 52.3938599" xml:space="preserve">
<g>
	<g id="XMLID_1_">
		<g>
			<g>
				<path fill="#009E81" d="M51.8833733,9.3685913c1.7700005,0,3.2099991,1.4400005,3.2099991,3.2000008
					c0,1.7699995-1.4399986,3.1999998-3.2099991,3.1999998c-0.2999992,0-0.6100006-0.04-0.9099998-0.1300001l-0.170002-0.0500002
					l-5.579998,7.6799994l0.0999985,0.1500015c0.3700027,0.5299988,0.5600014,1.1599998,0.5600014,1.8099995
					c0,1.7600002-1.4300003,3.1999989-3.2000008,3.1999989s-3.2000008-1.4399986-3.2000008-3.1999989
					c0-0.4099998,0.0800018-0.8099995,0.2299995-1.1900005l0.0600014-0.1599998l-4.5699997-4l-0.1599998,0.0799999
					c-0.8899994,0.5100002-2.0100021,0.5500011-2.9399986,0.1000004l-0.1600018-0.0699997l-4.8600006,4.8500004l0.0799999,0.1599998
					c0.210001,0.4299984,0.3100014,0.8999996,0.3100014,1.3799992c0,1.7600002-1.4300003,3.2000008-3.2000008,3.2000008
					c-0.8299999,0-1.6199989-0.3199997-2.2199993-0.9000015l-0.1300011-0.1199989l-3.6999989,1.8500004l0.0199986,0.1700001
					c0.0200005,0.1299992,0.0300007,0.2699986,0.0300007,0.3999996c0,1.7700005-1.4400005,3.2000008-3.1999998,3.2000008
					c-1.7700005,0-3.21-1.4300003-3.21-3.2000008c0-1.7600002,1.4399996-3.2000008,3.21-3.2000008
					c0.8299999,0,1.6199999,0.3199997,2.2200003,0.8999996l0.1199989,0.1200008l3.7000008-1.8500004l-0.0200005-0.1800003
					c-0.0100002-0.1299992-0.0199986-0.2599983-0.0199986-0.3899994c0-1.7700005,1.4299984-3.2000008,3.1999989-3.2000008
					c0.4799995,0,0.9500008,0.1000004,1.3800011,0.3100014l0.1599998,0.0699997l4.8499985-4.8500004l-0.0699997-0.1599998
					c-0.2099991-0.4300003-0.3199997-0.8899994-0.3199997-1.3799992c0-1.7600012,1.4400005-3.2000008,3.2099991-3.2000008
					c1.7600021,0,3.2000008,1.4399996,3.2000008,3.2000008c0,0.4099998-0.079998,0.8099995-0.2299995,1.1899986
					l-0.0699997,0.1599998l4.579998,4l0.1500015-0.0799999c0.75-0.4200001,1.6599998-0.5199986,2.4799995-0.2799988
					l0.170002,0.0499992l5.5900002-7.6799994l-0.1000023-0.1500006c-0.3699989-0.5299997-0.5699997-1.1599998-0.5699997-1.8099995
					C48.6833725,10.8085918,50.1233711,9.3685913,51.8833733,9.3685913z M53.2933731,12.5685921
					c0-0.7700005-0.6300011-1.4000006-1.4000015-1.4000006s-1.3999977,0.6300001-1.3999977,1.4000006
					c0,0.7699995,0.6299973,1.3999996,1.3999977,1.3999996S53.2933731,13.3385916,53.2933731,12.5685921z M44.0933723,25.2285919
					c0-0.7800007-0.6300011-1.3999996-1.4099998-1.3999996c-0.7700005,0-1.4000015,0.6199989-1.4000015,1.3999996
					c0,0.7700005,0.6300011,1.3999996,1.4000015,1.3999996C43.4633713,26.6285915,44.0933723,25.9985924,44.0933723,25.2285919z
					 M34.8833733,17.1685925c0-0.7700005-0.6300011-1.4000006-1.4000015-1.4000006s-1.3999977,0.6300001-1.3999977,1.4000006
					c0,0.7699986,0.6299973,1.3999996,1.3999977,1.3999996S34.8833733,17.938591,34.8833733,17.1685925z M25.6833725,26.3785915
					c0-0.7700005-0.6299992-1.3999996-1.4099998-1.3999996c-0.7700005,0-1.3999996,0.6299992-1.3999996,1.3999996
					s0.6299992,1.3999996,1.3999996,1.3999996C25.0533733,27.7785912,25.6833725,27.148592,25.6833725,26.3785915z
					 M16.4733734,30.9785919c0-0.7700005-0.6300001-1.3999996-1.4000006-1.3999996s-1.3999996,0.6299992-1.3999996,1.3999996
					s0.6299992,1.4000015,1.3999996,1.4000015S16.4733734,31.7485924,16.4733734,30.9785919z"/>
			</g>
		</g>
	</g>
</g>
<g>
	<path fill="#171717" d="M66.0852051,0H3.5985107C1.6147461,0,0,1.6148071,0,3.5985107v39.0112305
		c0,1.9837646,1.6147461,3.5985107,3.5985107,3.5985107h19.012207v4.3001099h-3.6153564
		c-0.5205078,0-0.9433594,0.4219971-0.9433594,0.9424438c0,0.5209961,0.4228516,0.9430542,0.9433594,0.9430542h31.592041
		c0.5203857,0,0.9431152-0.4220581,0.9431152-0.9430542c0-0.5204468-0.4227295-0.9424438-0.9431152-0.9424438h-3.6147461V46.208252
		h19.1125488c1.9840088,0,3.5987549-1.6147461,3.5987549-3.5985107V3.5985107C69.68396,1.6148071,68.0692139,0,66.0852051,0z
		 M45.0861816,50.5075684H24.4963379v-4.3001099h20.5898438V50.5075684z M67.7974854,42.6097412
		c0,0.9438477-0.7681885,1.7120361-1.7122803,1.7120361H3.5985107c-0.9438477,0-1.7120361-0.7681885-1.7120361-1.7120361v-1.06073
		h65.9110107V42.6097412z M67.7974854,39.6627197H52.7893066V21.2713623c0-0.4960938-0.4042969-0.9003906-0.9013672-0.9003906
		c-0.4960938,0-0.8994141,0.4042969-0.8994141,0.9003906v18.3913574h-7.4042969v-5.7341309
		c0-0.4970703-0.4042969-0.9013672-0.9003906-0.9013672s-0.9003906,0.4042969-0.9003906,0.9013672v5.7341309h-7.4001465V25.8775024
		c0-0.5-0.4099121-0.9000244-0.8999023-0.9000244c-0.5,0-0.9100342,0.4000244-0.9100342,0.9000244v13.7852173h-7.399292v-4.5837402
		c0-0.4960938-0.4042969-0.9003906-0.9003906-0.9003906s-0.9003906,0.4042969-0.9003906,0.9003906v4.5837402h-7.4069824
		c-0.005127-0.2305298-0.0975342-0.4555054-0.2600098-0.6188965c-0.3359375-0.3339844-0.9394531-0.3339844-1.2753906,0
		c-0.1623535,0.1633911-0.2537842,0.3883667-0.2589111,0.6188965H1.8864746V3.5985107
		c0-0.9446411,0.7674561-1.7120361,1.7120361-1.7120361h62.4866943c0.9440918,0,1.7122803,0.767395,1.7122803,1.7120361V39.6627197z
		"/>
</g>
</svg>
