<?xml version="1.0" encoding="utf-8"?>
<!-- Generator: Adobe Illustrator 23.0.1, SVG Export Plug-In . SVG Version: 6.00 Build 0)  -->
<svg version="1.1" id="Слой_1" xmlns="http://www.w3.org/2000/svg" xmlns:xlink="http://www.w3.org/1999/xlink" x="0px" y="0px"
	 viewBox="0 0 68.3339844 61.2783203" enable-background="new 0 0 68.3339844 61.2783203" xml:space="preserve">
<path fill="#171717" d="M61.6640625,11.2783203H47.7548828v-4.609375C47.7548828,2.9912109,44.7636719,0,41.0859375,0H26.5908203
	c-3.6777344,0-6.6689453,2.9912109-6.6689453,6.6689453v4.609375H6.6699219C2.9921875,11.2783203,0,14.2695313,0,17.9472656
	V54.609375c0,3.6777344,2.9921875,6.6689453,6.6699219,6.6689453h7.3054199h9.277832h38.4108887
	c3.6777344,0,6.6699219-2.9912109,6.6699219-6.6689453V17.9472656
	C68.3339844,14.2695313,65.3417969,11.2783203,61.6640625,11.2783203z M21.921875,6.6689453
	C21.921875,4.0947266,24.0166016,2,26.5908203,2h14.4951172c2.5742188,0,4.6689453,2.0947266,4.6689453,4.6689453v4.609375
	H21.921875V6.6689453z M66.3339844,54.609375c0,2.5742188-2.0947266,4.6689453-4.6699219,4.6689453H23.3017578h-9.375H6.6699219
	C4.0947266,59.2783203,2,57.1835938,2,54.609375V17.9472656c0-2.5742188,2.0947266-4.6689453,4.6699219-4.6689453h54.9941406
	c2.5751953,0,4.6699219,2.0947266,4.6699219,4.6689453V54.609375z"/>
<g>
	<g>
		<path fill="#009E81" d="M16.4512215,43.1570129c-0.354084-0.3563232-0.3522644-0.9329185,0.004055-1.2869987l0.1824265-0.181282
			c0.3562031-0.3539658,0.9327984-0.3521538,1.2868824,0.0041695c0.3545399,0.356781,0.3527279,0.9333801-0.0034752,1.2873497
			l-0.1824284,0.1812782C17.3823624,43.5156136,16.8057613,43.5137939,16.4512215,43.1570129L16.4512215,43.1570129z
			 M24.1670799,21.155756l0.1820812-0.1809387c0.3566647-0.3544235,0.3584881-0.9310207,0.004406-1.2873402
			c-0.3544235-0.3566647-0.9310284-0.3584805-1.287693-0.0040569l-0.1820812,0.1809387
			c-0.3566666,0.3544254-0.3580189,0.9305687-0.0035934,1.2872334
			C23.2342796,21.5079117,23.8104134,21.5101833,24.1670799,21.155756L24.1670799,21.155756z M24.9410439,54.8797607
			l-0.0008106,0.2568016c-0.0015869,0.5030289,0.4047489,0.9119339,0.9073219,0.9130554
			c0.2518597,0.0013657,0.4798985-0.0998764,0.6452579-0.2641983c0.1647816-0.1637459,0.2674637-0.3911476,0.2682571-0.642662
			l0.0008049-0.2567978c0.0019283-0.5024567-0.4045219-0.9114761-0.9073219-0.9130554
			C25.3519859,53.9708595,24.9429684,54.3773079,24.9410439,54.8797607L24.9410439,54.8797607z M34.4407196,54.3421631
			c-0.502449-0.001236-0.9114685,0.4052124-0.9135132,0.9077759c-0.0015831,0.5028038,0.4048691,0.9118195,0.9077797,0.913517
			l0.2568016,0.0008125c0.2510567,0.0003281,0.4789848-0.1010284,0.6437721-0.2647781
			c0.1653595-0.1643219,0.2681503-0.3916054,0.2692871-0.6425476c0.0015793-0.5030212-0.4048691-0.9120407-0.9077759-0.9135132
			L34.4407196,54.3421631z M36.2638702,18.1079502l0.1819649-0.1808224c0.3566666-0.3544235,0.3586044-0.9309044,0.004055-1.2876911
			c-0.3545341-0.3567772-0.9306793-0.3581352-1.2873459-0.0037098l-0.1819649,0.1808224
			c-0.356781,0.3545418-0.3590508,0.9306793-0.0045166,1.2874565C35.3306122,18.4607944,35.9070892,18.462492,36.2638702,18.1079502
			L36.2638702,18.1079502z M26.0327206,31.1692066c0.5030346,0.0015907,0.9119396-0.4047451,0.913517-0.9077778l0.0050678-1.7174969
			l1.7178364,0.0054111c0.2515144,0.0007915,0.479557-0.1004486,0.6448021-0.2646561
			c0.1653614-0.1643219,0.2680397-0.3917255,0.2687168-0.6431236c0.0012379-0.5024529-0.4047527-0.9110088-0.9073181-0.9130516
			l-1.7178364-0.0054131l0.0052853-1.7170372c0.0015888-0.5030251-0.4047489-0.9119301-0.9077797-0.913517
			c-0.5024509-0.0012341-0.9110069,0.4047546-0.9130554,0.90732l-0.0052929,1.7179565l-1.7176132-0.0058727
			c-0.5025635-0.0011196-0.9114685,0.4052162-0.9130535,0.90732c-0.0014687,0.5029182,0.4048691,0.9118233,0.9077797,0.913517
			l1.7171555,0.0054169l-0.0055294,1.7179527C25.1239319,30.7590694,25.5299225,31.1676273,26.0327206,31.1692066
			L26.0327206,31.1692066z M46.8256187,26.9437466c0.0012398-0.5024567-0.4047546-0.9110146-0.9077797-0.9125977
			L44.2002258,26.02528l0.0055275-1.7170391c0.0015831-0.503027-0.4048653-0.9120464-0.9073219-0.9130554
			c-0.5029144-0.0016975-0.9114723,0.4042931-0.9135132,0.9068623l-0.0055275,1.7179546l-1.7173805-0.0058689
			c-0.5025673-0.0011272-0.9115906,0.4053249-0.9130554,0.9082394c-0.0016975,0.5019932,0.4047508,0.9110126,0.9073181,0.9130554
			l1.7173805,0.0049515l-0.0052948,1.7179546c-0.0015869,0.5030289,0.4044037,0.9115868,0.9073219,0.9130554
			c0.5029106,0.0016994,0.9119339-0.4047527,0.9130554-0.90732l0.0052948-1.7179546l1.718071,0.0054111
			c0.2515144,0.0007935,0.4794388-0.100338,0.6447983-0.2646599C46.7222633,27.4225445,46.8248253,27.195261,46.8256187,26.9437466
			L46.8256187,26.9437466z M51.0233803,31.7157917l-0.0006905,0.256916
			c-0.0016975,0.501997,0.4042892,0.9114704,0.9073181,0.9130573c0.2514,0.0006752,0.4793243-0.1004524,0.6446838-0.2647743
			c0.1652451-0.1642075,0.2679253-0.390686,0.2688293-0.6420841l0.0006943-0.256916
			c0.0015869-0.5028-0.4048653-0.9118195-0.9068604-0.913517C51.4339828,30.8065453,51.0254288,31.2125359,51.0233803,31.7157917
			L51.0233803,31.7157917z M24.7270489,45.3761559l0.0055237-1.7170372c0.001585-0.5030289-0.4048634-0.9120483-0.9077797-0.9135132
			c-0.5025673-0.0011292-0.9110126,0.4047508-0.9130535,0.9073181l-0.0055294,1.7179565l-1.7169228-0.0054054
			c-0.5030231-0.0015907-0.9120426,0.4048576-0.9135094,0.9068565c-0.0016975,0.5029106,0.4047508,0.9119301,0.9073181,0.9139748
			l1.7173805,0.0049515l-0.0052948,1.7179527c-0.0015888,0.5030327,0.4044037,0.9115868,0.9073219,0.9130554
			c0.5029125,0.0016975,0.911932-0.4047508,0.9135132-0.9077759l0.0052948-1.7170372l1.7176151,0.0049477
			c0.2515087,0.0007973,0.479435-0.1003342,0.6447983-0.2646599c0.1648979-0.1638603,0.2674618-0.3911438,0.2682552-0.6426582
			c0.0016975-0.5029144-0.4042931-0.9114723-0.9073219-0.9130554L24.7270489,45.3761559z M50.2931252,19.6259575
			l-0.2563477-0.000349c-0.5028-0.0015812-0.9118156,0.4048672-0.913517,0.9077797
			c-0.0010109,0.5024605,0.4054413,0.911478,0.9077835,0.9125977l0.2568016,0.0008125
			c0.2515144,0.0007877,0.4790916-0.0999928,0.6443405-0.264204c0.1653595-0.1643219,0.2680359-0.391716,0.2687187-0.6431217
			C51.2021446,20.0361004,50.796154,19.6275425,50.2931252,19.6259575L50.2931252,19.6259575z M35.7879257,24.5066833
			l2.7382927,8.9780655l8.9609756,2.7951431c0.381382,0.1188011,0.6406326,0.472641,0.6399536,0.8718681
			c-0.0012589,0.3995743-0.2633095,0.7511902-0.6453209,0.8676987l-8.9786339,2.738636l-2.7951469,8.9612045
			c-0.0449448,0.1448135-0.1238632,0.2725067-0.2266045,0.3746071c-0.1675529,0.1664963-0.3973122,0.2660141-0.6451492,0.2652321
			c-0.3992233-0.0018311-0.7514191-0.2633095-0.8678131-0.6454353l-2.7386341-8.978405l-8.9606361-2.7948036
			c-0.3818359-0.1192551-0.6406364-0.4726372-0.6398354-0.8717461c0.0011463-0.3996887,0.2627335-0.7517738,0.644865-0.8681602
			l8.9789791-2.7382889l2.7948055-8.9615498c0.1187897-0.3813896,0.4720535-0.6402931,0.8722038-0.6393814
			C35.3193321,23.8630848,35.6710739,24.1241035,35.7879257,24.5066833L35.7879257,24.5066833z M34.9071655,27.8607693
			l-2.0594902,6.603426c-0.0893021,0.2865219-0.3154335,0.5112343-0.6030922,0.5993004l-6.6161537,2.0177345l6.6028481,2.0591469
			c0.2871017,0.0896454,0.5118141,0.3157768,0.5997658,0.6035538l2.017849,6.6160355l2.0593758-6.6033096
			c0.0444794-0.1434364,0.1235123-0.271244,0.2270622-0.3741455c0.1040154-0.1033592,0.2323189-0.1815834,0.37603-0.2251549
			l6.6162682-2.017849L37.5247803,35.07967c-0.2876778-0.0893059-0.5123863-0.3154335-0.599762-0.6035538L34.9071655,27.8607693z
			 M17.3110638,31.6267166l0.0008144-0.256794c0.0011215-0.5025749-0.4048729-0.9111347-0.9073277-0.913063
			c-0.5029106-0.0016937-0.9119291,0.4047565-0.913517,0.9077797l-0.0012674,0.2563419
			c-0.0010071,0.5024586,0.4053307,0.9113674,0.9077787,0.9135151c0.2515202,0.0008011,0.4795628-0.1004448,0.6448078-0.2646523
			C17.2077122,32.1055222,17.3102779,31.8782387,17.3110638,31.6267166L17.3110638,31.6267166z M17.3110638,31.6267166"/>
	</g>
	<path fill="#009E81" d="M44.3925171,49.8251686c0.5030365,0.0015869,0.9119377-0.404747,0.913517-0.9077797l0.0050697-1.717495
		l1.7178345,0.0054092c0.2515144,0.0007896,0.479557-0.1004486,0.6448021-0.2646561
		c0.1653633-0.1643219,0.2680397-0.3917274,0.2687149-0.6431236c0.0012398-0.5024529-0.4047508-0.9110107-0.9073143-0.9130516
		l-1.7178383-0.0054131l0.0052834-1.7170372c0.0015907-0.5030251-0.404747-0.9119301-0.9077797-0.913517
		c-0.502449-0.001236-0.9110031,0.4047546-0.9130554,0.9073219l-0.005291,1.7179527l-1.7176132-0.0058708
		c-0.5025635-0.0011215-0.9114685,0.4052162-0.9130516,0.9073181c-0.0014687,0.5029182,0.4048691,0.9118271,0.9077797,0.913517
		l1.7171555,0.0054169l-0.0055313,1.7179527C43.4837265,49.4150276,43.8897171,49.8235855,44.3925171,49.8251686
		L44.3925171,49.8251686z"/>
	<path fill="#009E81" d="M49.424099,38.8515167l-0.0006943,0.256916c-0.0016975,0.5019951,0.4042931,0.9114685,0.9073219,0.9130554
		c0.2514,0.0006752,0.4793243-0.1004524,0.6446838-0.2647743c0.1652451-0.1642075,0.2679214-0.390686,0.2688293-0.642086
		l0.0006943-0.256916c0.0015831-0.5028-0.4048653-0.9118156-0.9068604-0.9135132
		C49.8347015,37.9422684,49.4261436,38.348259,49.424099,38.8515167L49.424099,38.8515167z"/>
</g>
</svg>
